<?xml version="1.0" encoding="utf-8"?>
<!-- Generator: Adobe Illustrator 27.5.0, SVG Export Plug-In . SVG Version: 6.00 Build 0)  -->
<svg version="1.1" xmlns="http://www.w3.org/2000/svg" xmlns:xlink="http://www.w3.org/1999/xlink" x="0px" y="0px"
	 viewBox="0 0 500 500" style="enable-background:new 0 0 500 500;" xml:space="preserve">
<g id="BACKGROUND">
</g>
<g id="OBJECTS">
	<g>
		<circle style="opacity:0.81;fill:#AEF4B5;" cx="250" cy="245.732" r="166.487"/>
		<path style="fill:#4B2F91;" d="M196.711,179.098c0-12.84-10.409-23.249-23.249-23.249h0c-12.84,0-23.249,10.409-23.249,23.249
			v67.836l-19.81,23.217l65.746-0.203l0.562-23.014V179.098z"/>
		<linearGradient id="SVGID_1_" gradientUnits="userSpaceOnUse" x1="205.7694" y1="82.3124" x2="205.7694" y2="315.3653">
			<stop  offset="0" style="stop-color:#ECEAF4"/>
			<stop  offset="0.1352" style="stop-color:#E3E1F0"/>
			<stop  offset="0.3592" style="stop-color:#CAC7E4"/>
			<stop  offset="0.5674" style="stop-color:#AEAAD7"/>
			<stop  offset="0.8652" style="stop-color:#847CBE"/>
			<stop  offset="0.9944" style="stop-color:#696397"/>
		</linearGradient>
		<path style="fill:url(#SVGID_1_);" d="M300.516,155.849v-37.126c0-1.409-1.142-2.551-2.551-2.551H113.879
			c-1.404,0-2.544,1.132-2.551,2.536c-0.08,15.221-0.517,94.099-0.179,131.552c0.013,1.471,0.186,2.94,0.519,4.373
			c0.324,1.395,0.799,2.755,1.414,4.048c0.605,1.273,1.346,2.48,2.204,3.598c0.854,1.111,1.824,2.133,2.889,3.044
			c1.069,0.914,2.233,1.716,3.468,2.387c1.251,0.681,2.575,1.227,3.942,1.628c1.617,0.473,3.298,0.758,4.982,0.82
			c1.566,0.058,3.141-0.073,4.677-0.384c1.384-0.279,2.737-0.706,4.031-1.27c1.271-0.555,2.485-1.242,3.615-2.047
			c1.122-0.799,2.162-1.714,3.099-2.724c0.938-1.012,1.772-2.12,2.484-3.302c0.719-1.194,1.314-2.463,1.77-3.781
			c0.466-1.348,0.787-2.745,0.957-4.161c0.096-0.801,0.144-1.608,0.144-2.414v-3.141v-67.279c0-12.606,9.803-23.343,22.401-23.791
			c13.226-0.47,24.096,10.112,24.096,23.234"/>
		<path style="fill:#4D4D4D;" d="M196.711,172.047"/>
		<path style="fill:#4D4D4D;" d="M196.711,214.78"/>
		<path style="opacity:0.12;fill:#1B1464;" d="M185.199,246.934l0.562-67.836c0-12.84,2.431-23.249-10.409-23.249h153.586
			c17.536,0,31.753,14.216,31.753,31.753v97.096c0,47.07-8.699,90.756,32.337,136.057h-1.631H215.093
			c-30.253-23.148-29.894-59.067-29.894-97.161V246.934z"/>
		
			<linearGradient id="SVGID_00000059298025811275081860000011465429688972275644_" gradientUnits="userSpaceOnUse" x1="288.7198" y1="267.3122" x2="288.7198" y2="601.3365">
			<stop  offset="0" style="stop-color:#ECEAF4"/>
			<stop  offset="0.1352" style="stop-color:#E3E1F0"/>
			<stop  offset="0.3592" style="stop-color:#CAC7E4"/>
			<stop  offset="0.5674" style="stop-color:#AEAAD7"/>
			<stop  offset="0.8652" style="stop-color:#847CBE"/>
			<stop  offset="0.9944" style="stop-color:#696397"/>
		</linearGradient>
		<path style="fill:url(#SVGID_00000059298025811275081860000011465429688972275644_);" d="M371.64,284.698v-97.096
			c0-17.536-14.216-31.753-31.753-31.753H173.462c12.84,0,23.249,10.409,23.249,23.249l-0.562,67.836v76.66
			c0,38.093-0.359,74.013,29.894,97.161h176.303h1.631C362.941,375.454,371.64,331.768,371.64,284.698z"/>
		<g>
			<text transform="matrix(1 0 0 1 218.7022 223.2516)" style="fill:#837BBC; font-family:'OpenSans-Bold'; font-size:19.5135px;">YOUR RECEIPT</text>
			<g>
				<g>
					
						<line style="fill:none;stroke:#8289E8;stroke-width:2;stroke-miterlimit:10;" x1="225.999" y1="350.783" x2="231.999" y2="350.783"/>
					
						<line style="fill:none;stroke:#8289E8;stroke-width:2;stroke-miterlimit:10;stroke-dasharray:11.0342,11.0342;" x1="243.033" y1="350.783" x2="347.859" y2="350.783"/>
					
						<line style="fill:none;stroke:#8289E8;stroke-width:2;stroke-miterlimit:10;" x1="353.376" y1="350.783" x2="359.376" y2="350.783"/>
				</g>
			</g>
			<g>
				<text transform="matrix(1 0 0 1 223.7489 255.4054)" style="fill:#858CE8; font-family:'OpenSans-Bold'; font-size:14.3492px;">ITEM 1</text>
				<text transform="matrix(1 0 0 1 308.9399 255.4054)" style="fill:#858CE8; font-family:'OpenSans-Bold'; font-size:14.3492px;">$20.00</text>
			</g>
			<g>
				<text transform="matrix(1 0 0 1 223.7489 278.6432)" style="fill:#858CE8; font-family:'OpenSans-Bold'; font-size:14.3492px;">ITEM 1</text>
				<text transform="matrix(1 0 0 1 308.9399 278.6432)" style="fill:#858CE8; font-family:'OpenSans-Bold'; font-size:14.3492px;">$20.00</text>
			</g>
			<g>
				<text transform="matrix(1 0 0 1 223.7487 300.6432)" style="fill:#858CE8; font-family:'OpenSans-Bold'; font-size:14.3492px;">ITEM 1</text>
				<text transform="matrix(1 0 0 1 308.9397 300.6432)" style="fill:#858CE8; font-family:'OpenSans-Bold'; font-size:14.3492px;">$20.00</text>
			</g>
			
				<text transform="matrix(1 0 0 1 256.8669 387.35)" style="opacity:0.76;fill:#5852A0; font-family:'OpenSans-Bold'; font-size:16.2603px;">TOTAL: 00.00</text>
			
				<line style="fill:none;stroke:#837BBC;stroke-width:6;stroke-miterlimit:10;" x1="217.031" y1="320.472" x2="361.031" y2="320.472"/>
			
				<line style="fill:none;stroke:#837BBC;stroke-width:6;stroke-miterlimit:10;" x1="217.031" y1="337.456" x2="361.031" y2="337.456"/>
		</g>
	</g>
</g>
<g id="DESIGNEDBYFREEPIK">
	<g>
		<g id="XMLID_319_">
			<g id="XMLID_338_">
				<path id="XMLID_346_" style="fill:#1D262D;" d="M261.442,463.892c-0.49,0.502-0.91,1.054-1.255,1.646l-0.527-0.273
					c-0.076-0.337-0.396-0.569-0.746-0.528c-0.375,0.044-0.643,0.384-0.599,0.759c0.044,0.375,0.384,0.643,0.758,0.599
					c0.074-0.009,0.144-0.029,0.208-0.059l0.511,0.265c-0.284,0.627-0.49,1.289-0.611,1.975l0.845,0.149
					c0.26-1.479,0.962-2.839,2.029-3.932L261.442,463.892z"/>
				<path id="XMLID_345_" style="fill:#1D262D;" d="M267.656,461.285c-0.194,0-0.386,0.007-0.577,0.019l-0.083-0.709
					c0.212-0.169,0.335-0.44,0.301-0.73c-0.052-0.445-0.456-0.763-0.901-0.711c-0.445,0.052-0.763,0.455-0.711,0.901
					c0.034,0.288,0.214,0.522,0.458,0.638l0.083,0.707c-0.808,0.132-1.589,0.376-2.332,0.732l0.37,0.774
					c1.058-0.506,2.199-0.762,3.392-0.762c0.562,0,1.124,0.06,1.67,0.178l0.182-0.839
					C268.903,461.352,268.279,461.285,267.656,461.285z"/>
				<path id="XMLID_344_" style="fill:#1D262D;" d="M275.133,464.17c0.375-0.046,0.641-0.387,0.595-0.761
					c-0.046-0.375-0.387-0.641-0.761-0.595c-0.35,0.043-0.606,0.344-0.6,0.689l-0.471,0.411c-0.473-0.487-1.007-0.92-1.594-1.29
					l-0.458,0.726c1.284,0.809,2.288,1.955,2.903,3.313l0.782-0.354c-0.284-0.627-0.643-1.214-1.067-1.75l0.455-0.397
					C274.986,464.175,275.059,464.179,275.133,464.17z"/>
				<path id="XMLID_343_" style="fill:#1D262D;" d="M267.036,472.845c-0.437,0.026-0.878,0.039-1.31,0.039
					c-0.997,0-1.962-0.069-2.807-0.203c-0.442-0.07-0.958-0.176-1.438-0.331c1.185,2.107,3.476,3.539,6.102,3.539
					c3.233,0,5.959-2.17,6.737-5.1c-0.772,0.509-1.705,0.935-2.784,1.271C270.201,472.478,268.643,472.749,267.036,472.845z"/>
				<path id="XMLID_339_" style="fill:#1D262D;" d="M267.656,463.002c-3.796,0-6.884,3.019-6.884,6.73
					c0,0.482,0.052,0.962,0.155,1.428c0.763,0.547,3.064,1.008,6.055,0.828c3.261-0.196,5.998-1.084,7.556-2.444
					c-0.006-0.221-0.023-0.442-0.051-0.659C274.056,465.531,271.12,463.002,267.656,463.002z M265.211,470.38
					c-1.155,0-2.095-0.94-2.095-2.095c0-1.155,0.94-2.095,2.095-2.095c1.155,0,2.095,0.94,2.095,2.095
					C267.306,469.44,266.366,470.38,265.211,470.38z M270.576,469.351c-0.849,0-1.54-0.691-1.54-1.54
					c0-0.849,0.691-1.541,1.54-1.541c0.849,0,1.541,0.691,1.541,1.541C272.116,468.66,271.425,469.351,270.576,469.351z"/>
			</g>
			<path id="XMLID_336_" style="fill:#1D262D;" d="M285.779,465.116c-0.334-0.131-0.912-0.35-1.565-0.269
				c-0.624,0.078-0.956,0.386-0.956,1.14v0.981h2.523v1.945h-2.523v6.177h-2.188v-6.177h-1.517v-1.945h1.517v-1.006
				c0-1.902,1.014-3.151,2.908-3.151c0.728,0,1.31,0.138,1.8,0.349L285.779,465.116z"/>
			<path id="XMLID_334_" style="fill:#1D262D;" d="M291.104,468.89c-0.2-0.034-0.405-0.052-0.596-0.052
				c-1.014,0-1.71,0.62-1.71,1.827v4.425h-2.188v-8.122h2.12v0.888c0.511-0.763,1.291-1.106,2.288-1.106
				c0.469,0,0.96,0.144,1.239,0.381L291.104,468.89z"/>
			<path id="XMLID_331_" style="fill:#1D262D;" d="M299.786,471.017c0,0.251-0.017,0.553-0.042,0.738h-5.758
				c0.235,1.173,1.056,1.685,2.087,1.685c0.704,0,1.467-0.285,2.053-0.779l1.282,1.408c-0.922,0.846-2.095,1.232-3.461,1.232
				c-2.489,0-4.216-1.693-4.216-4.249c0-2.556,1.676-4.3,4.107-4.3C298.177,466.75,299.778,468.485,299.786,471.017z
				 M293.995,470.262h3.595c-0.201-1.039-0.83-1.626-1.768-1.626C294.791,468.636,294.187,469.257,293.995,470.262z"/>
			<path id="XMLID_328_" style="fill:#1D262D;" d="M308.453,471.017c0,0.251-0.017,0.553-0.042,0.738h-5.758
				c0.235,1.173,1.056,1.685,2.087,1.685c0.704,0,1.467-0.285,2.053-0.779l1.282,1.408c-0.922,0.846-2.095,1.232-3.461,1.232
				c-2.489,0-4.216-1.693-4.216-4.249c0-2.556,1.676-4.3,4.107-4.3C306.843,466.75,308.444,468.485,308.453,471.017z
				 M302.661,470.262h3.596c-0.201-1.039-0.83-1.626-1.768-1.626C303.457,468.636,302.854,469.257,302.661,470.262z"/>
			<path id="XMLID_325_" style="fill:#1D262D;" d="M317.903,471.025c0,2.439-1.693,4.275-3.931,4.275
				c-1.09,0-1.861-0.428-2.389-1.056v4.199h-2.179v-11.474h2.137v0.897c0.528-0.662,1.307-1.115,2.422-1.115
				C316.21,466.75,317.903,468.586,317.903,471.025z M311.475,471.025c0,1.282,0.846,2.238,2.087,2.238
				c1.291,0,2.095-0.997,2.095-2.238c0-1.24-0.805-2.238-2.095-2.238C312.321,468.787,311.475,469.742,311.475,471.025z"/>
			<path id="XMLID_322_" style="fill:#1D262D;" d="M321.418,464.311c0,0.788-0.612,1.391-1.4,1.391
				c-0.788,0-1.391-0.603-1.391-1.391c0-0.788,0.604-1.408,1.391-1.408C320.806,462.903,321.418,463.524,321.418,464.311z
				 M321.124,475.09h-2.188v-8.122h2.188V475.09z"/>
			<path id="XMLID_320_" style="fill:#1D262D;" d="M324.775,469.86l3.059-2.892h2.682l-3.939,3.822l3.964,4.3h-2.69l-3.076-3.285
				v3.285h-2.188v-12.069h2.188V469.86z"/>
		</g>
		<g>
			<path style="fill:#1D262D;" d="M175.729,475.016v-1.194c-0.597,0.813-1.576,1.393-2.704,1.393c-2.09,0-3.566-1.592-3.566-4.196
				c0-2.555,1.46-4.213,3.566-4.213c1.078,0,2.057,0.531,2.704,1.41v-4.263h1.244v11.064H175.729z M175.729,472.843v-3.633
				c-0.448-0.697-1.41-1.294-2.405-1.294c-1.609,0-2.571,1.327-2.571,3.102c0,1.775,0.962,3.085,2.571,3.085
				C174.319,474.104,175.281,473.54,175.729,472.843z"/>
			<path style="fill:#1D262D;" d="M178.582,471.002c0-2.322,1.659-4.197,3.948-4.197c2.422,0,3.848,1.891,3.848,4.296v0.316h-6.486
				c0.1,1.509,1.161,2.77,2.886,2.77c0.912,0,1.841-0.365,2.471-1.012l0.597,0.813c-0.796,0.796-1.874,1.227-3.185,1.227
				C180.29,475.215,178.582,473.507,178.582,471.002z M182.513,467.834c-1.709,0-2.555,1.443-2.621,2.67h5.258
				C185.134,469.31,184.337,467.834,182.513,467.834z"/>
			<path style="fill:#1D262D;" d="M187.273,473.955l0.647-0.895c0.531,0.614,1.543,1.145,2.637,1.145
				c1.228,0,1.891-0.581,1.891-1.377c0-1.94-4.96-0.746-4.96-3.716c0-1.244,1.078-2.306,2.985-2.306c1.36,0,2.323,0.514,2.969,1.161
				l-0.581,0.863c-0.481-0.581-1.36-1.012-2.389-1.012c-1.095,0-1.775,0.547-1.775,1.261c0,1.758,4.96,0.597,4.96,3.716
				c0,1.344-1.078,2.422-3.151,2.422C189.197,475.215,188.086,474.817,187.273,473.955z"/>
			<path style="fill:#1D262D;" d="M195.053,465.031c0-0.464,0.382-0.846,0.829-0.846c0.465,0,0.846,0.381,0.846,0.846
				c0,0.465-0.381,0.829-0.846,0.829C195.434,465.86,195.053,465.495,195.053,465.031z M195.268,475.016v-8.012h1.244v8.012H195.268
				z"/>
			<path style="fill:#1D262D;" d="M198.569,477.073l0.63-0.929c0.663,0.796,1.46,1.095,2.604,1.095c1.327,0,2.571-0.647,2.571-2.405
				v-1.145c-0.581,0.813-1.559,1.427-2.687,1.427c-2.09,0-3.566-1.559-3.566-4.147c0-2.571,1.46-4.163,3.566-4.163
				c1.078,0,2.04,0.531,2.687,1.41v-1.211h1.244v7.78c0,2.654-1.858,3.483-3.815,3.483
				C200.443,478.267,199.514,478.002,198.569,477.073z M204.374,472.711v-3.5c-0.432-0.697-1.393-1.294-2.389-1.294
				c-1.609,0-2.571,1.277-2.571,3.052c0,1.758,0.962,3.052,2.571,3.052C202.981,474.021,203.943,473.408,204.374,472.711z"/>
			<path style="fill:#1D262D;" d="M213.099,475.016v-5.242c0-1.41-0.713-1.858-1.791-1.858c-0.979,0-1.908,0.597-2.372,1.244v5.855
				h-1.244v-8.012h1.244v1.161c0.564-0.663,1.658-1.36,2.853-1.36c1.675,0,2.555,0.846,2.555,2.588v5.623H213.099z"/>
			<path style="fill:#1D262D;" d="M215.952,471.002c0-2.322,1.659-4.197,3.948-4.197c2.422,0,3.848,1.891,3.848,4.296v0.316h-6.486
				c0.099,1.509,1.161,2.77,2.886,2.77c0.912,0,1.841-0.365,2.472-1.012l0.597,0.813c-0.796,0.796-1.874,1.227-3.185,1.227
				C217.66,475.215,215.952,473.507,215.952,471.002z M219.883,467.834c-1.708,0-2.555,1.443-2.621,2.67h5.258
				C222.503,469.31,221.707,467.834,219.883,467.834z"/>
			<path style="fill:#1D262D;" d="M231.146,475.016v-1.194c-0.597,0.813-1.576,1.393-2.704,1.393c-2.09,0-3.566-1.592-3.566-4.196
				c0-2.555,1.46-4.213,3.566-4.213c1.078,0,2.057,0.531,2.704,1.41v-4.263h1.244v11.064H231.146z M231.146,472.843v-3.633
				c-0.448-0.697-1.41-1.294-2.405-1.294c-1.609,0-2.571,1.327-2.571,3.102c0,1.775,0.962,3.085,2.571,3.085
				C229.736,474.104,230.697,473.54,231.146,472.843z"/>
			<path style="fill:#1D262D;" d="M238.327,475.016v-11.064h1.244v4.263c0.647-0.879,1.609-1.41,2.704-1.41
				c2.09,0,3.566,1.659,3.566,4.213c0,2.604-1.476,4.196-3.566,4.196c-1.128,0-2.107-0.581-2.704-1.393v1.194H238.327z
				 M241.96,474.104c1.626,0,2.588-1.31,2.588-3.085c0-1.775-0.962-3.102-2.588-3.102c-0.979,0-1.957,0.597-2.388,1.294v3.633
				C240.003,473.54,240.981,474.104,241.96,474.104z"/>
			<path style="fill:#1D262D;" d="M247.201,477.023c0.182,0.083,0.481,0.133,0.68,0.133c0.547,0,0.912-0.182,1.194-0.846
				l0.531-1.211l-3.351-8.095h1.344l2.671,6.569l2.654-6.569h1.36l-4.014,9.637c-0.481,1.161-1.294,1.609-2.356,1.625
				c-0.265,0-0.68-0.05-0.912-0.116L247.201,477.023z"/>
		</g>
	</g>
</g>
</svg>
